<svg xmlns:xlink="http://www.w3.org/1999/xlink" xmlns="http://www.w3.org/2000/svg" viewBox="0 0 25 24" enable-background="new 0 0 25 24" width="25"  height="24" ><path fill="#007DAA" d="M19 8h-3c-.552 0-1 .448-1 1v.5c0 .552.448 1 1 1h3c.552 0 1-.448 1-1v-.5c0-.552-.448-1-1-1zm-12.5 0h-.5c-.552 0-1 .448-1 1v.5c0 .552.448 1 1 1h.5c.552 0 1-.448 1-1v-.5c0-.552-.448-1-1-1zm4.5 2.5h.5c.552 0 1-.448 1-1v-.5c0-.552-.448-1-1-1h-.5c-.552 0-1 .448-1 1v.5c0 .552.448 1 1 1zm8 2.5h-.5c-.552 0-1 .448-1 1v.5c0 .552.448 1 1 1h.5c.552 0 1-.448 1-1v-.5c0-.552-.448-1-1-1zm-5 0h-3c-.552 0-1 .448-1 1v.5c0 .552.448 1 1 1h3c.552 0 1-.448 1-1v-.5c0-.552-.448-1-1-1zm-7.5 0h-.5c-.552 0-1 .448-1 1v.5c0 .552.448 1 1 1h.5c.552 0 1-.448 1-1v-.5c0-.552-.448-1-1-1zm15.5-11h-19c-1.657 0-3 1.343-3 3v14c0 1.657 1.343 3 3 3h19c1.657 0 3-1.343 3-3v-14c0-1.657-1.343-3-3-3zm.5 17c0 .276-.225.5-.5.5h-19c-.275 0-.5-.224-.5-.5v-14c0-.276.225-.5.5-.5h19c.275 0 .5.224.5.5v14z"></path><path fill="none" d="M0 0h25v24h-25z"></path></svg>